<svg width="16" height="16" viewBox="0 0 16 16" fill="none" xmlns="http://www.w3.org/2000/svg">
<rect width="16" height="16" fill="#F185B9"/>
<path d="M9.36645 4C11.3274 4 12 5.78621 12 7.14046C12 9.24188 10.9397 10.3626 9.61726 10.3626C8.4886 10.3626 7.87296 9.58044 7.87296 8.86829C7.87296 8.09777 8.21498 7.79423 8.5342 7.74753C8.5 7.84093 8.4886 7.93433 8.4886 8.02772C8.4886 8.27289 8.61401 8.61145 8.91042 8.61145C9.30945 8.61145 9.54886 8.0394 9.54886 7.36227C9.54886 6.45166 9.12704 6.0197 8.5798 6.0197C7.94137 6.0197 7.39414 6.58008 7.39414 7.79423V12.931H5V4.17512H7.13192C7.42834 4.17512 7.45114 4.25684 7.45114 4.35024C7.45114 4.74717 6.53909 5.35425 6.53909 6.72017H6.8127C6.8127 5.78621 7.63355 4 9.36645 4Z" fill="white"/>
</svg>
