<svg width="32" height="32" viewBox="0 0 32 32" fill="none" xmlns="http://www.w3.org/2000/svg">
<rect width="32" height="32" fill="#F185B9"/>
<path d="M17.7329 7C21.6547 7 23 10.5724 23 13.2809C23 17.4838 20.8795 19.7253 18.2345 19.7253C15.9772 19.7253 14.7459 18.1609 14.7459 16.7366C14.7459 15.1955 15.43 14.5885 16.0684 14.4951C16 14.6819 15.9772 14.8687 15.9772 15.0554C15.9772 15.5458 16.228 16.2229 16.8208 16.2229C17.6189 16.2229 18.0977 15.0788 18.0977 13.7245C18.0977 11.9033 17.2541 11.0394 16.1596 11.0394C14.8827 11.0394 13.7883 12.1602 13.7883 14.5885V24.8621H9V7.35024H13.2638C13.8567 7.35024 13.9023 7.51368 13.9023 7.70047C13.9023 8.49434 12.0782 9.7085 12.0782 12.4403H12.6254C12.6254 10.5724 14.2671 7 17.7329 7Z" fill="white"/>
</svg>
