<svg width="64" height="64" viewBox="0 0 64 64" fill="none" xmlns="http://www.w3.org/2000/svg">
<rect width="64" height="64" fill="#F185B9"/>
<path d="M36.0896 14C44.2134 14 47 21.4 47 27.0105C47 35.7163 42.6075 40.3595 37.1287 40.3595C32.4528 40.3595 29.9023 37.119 29.9023 34.1686C29.9023 30.9765 31.3192 29.719 32.6417 29.5255C32.5 29.9124 32.4528 30.2993 32.4528 30.6863C32.4528 31.702 32.9723 33.1046 34.2003 33.1046C35.8534 33.1046 36.8453 30.7346 36.8453 27.9294C36.8453 24.1569 35.0977 22.3673 32.8306 22.3673C30.1857 22.3673 27.9186 24.6889 27.9186 29.719V51H18V14.7255H26.8322C28.0603 14.7255 28.1547 15.0641 28.1547 15.451C28.1547 17.0954 24.3762 19.6105 24.3762 25.2693H25.5098C25.5098 21.4 28.9104 14 36.0896 14Z" fill="white"/>
</svg>
