<?xml version="1.0" encoding="UTF-8"?>
<svg id="Layer_2" data-name="Layer 2" xmlns="http://www.w3.org/2000/svg" viewBox="0 0 690.68 702.29">
  <g id="Layer_1-2" data-name="Layer 1">
    <g>
      <path d="M594.33,604.27l-17.87,16.98c-123.76,107.48-304.68,108.64-428.02-.1-50.28-30.69-89.5-75.14-114.76-128.3-13.99-29.44-22.98-60.27-28.56-92.42C-17.46,270.06,35.64,136.58,143.29,59.93s254.18-80.68,365.08-.72c20.65,14.89,38.25,31.83,56.61,49.41,10.22,9.79,21.56,17.33,31.18,27.84,15.35,16.77,28.9,33.69,40.96,53.07,31.88,51.22,51.83,107.71,53.43,168.61,2.44,92.48-31.1,180.12-96.23,246.13ZM477.8,593.56c17.96-11.5,34.1-23.94,49.37-38.94,49.07-48.19,81.78-111.23,92.15-179.49,11.66-76.76-9.56-156.2-53.11-219.71-33.81-49.3-80.83-87.35-136.3-109.71C323.05,2.66,205.81,31.7,123.44,110.11,49.03,180.95,15.35,283.49,29.16,385.28c12.09,89.04,54.93,164.41,131.33,212.88,97.57,61.9,220.74,57.25,317.31-4.6Z"/>
      <path d="M277.46,521.79c1.23-7.95,7.08-12.58,14.58-11.69s11.44,8.18,10.23,15.77l-13.98,87.77c-1.15,7.19-5.49,11.68-12.5,11.78-6.06.09-13.41-5.9-12.28-13.24l13.95-90.39Z"/>
      <path d="M217.34,488.94c4.62-6.23,11.39-8.39,17.45-4.61,5.52,3.44,8.45,11.3,4.05,17.24l-46.52,62.9c-3.7,5-12.46,3.77-16.23.54-4.24-3.63-7-11.04-2.97-16.46l44.23-59.61Z"/>
      <path d="M324.18,136.05c-2.83,5.35-11.18,5.23-15.67,3.1s-8.9-8.92-5.93-14.66l35.43-68.44c3.14-6.07,11.05-7.4,16.66-4.47s8.76,10.13,5.36,16.56l-35.86,67.92Z"/>
      <path d="M371.14,184.94c-6.45,3.19-12.84,1.55-16.84-4.07-3.2-4.5-2.82-13.91,3.65-17.11l60.1-29.67c6.1-3.01,12.82.8,15.41,5.9,2.91,5.72,1.57,13.33-4.96,16.56l-57.37,28.39Z"/>
      <path d="M391.14,548.33c4.63,7.02,2.54,14.86-3.89,18.48-6.6,3.71-13.39,1.07-17.58-5.43l-28.58-44.38c-3.57-5.55-2.24-12.05,2.34-16.3,3.71-3.44,13.1-4.87,16.71.61l30.99,47.03Z"/>
      <path d="M345.31,401.23l-.3,39.85c-.14,18.94-11.58,35.88-27,43.61-18.36,9.21-39.34,7.23-54.87-5.17l-75.63-60.41-62.27-49.62c-15.25-12.16-21.84-31.26-17.47-50.09,2.44-10.48,7.08-19.79,15.37-26.72l86.52-72.32,47.54-40.46c21.83-18.57,54.22-15.76,72.85,5.56,9.67,11.07,13.21,24.06,13.64,38.69l.84,29.09,121.85-.09c13.93-.01,26.2,3.53,36.99,12.17,12.2,9.76,20.71,23.7,20.72,39.85l.03,44.98c.02,26.58-26.52,50.9-51.66,50.93l-127.17.16ZM318.22,390.16c.12-9.53,8.61-15.38,17.35-15.39l135.6-.17c13.62-.02,26.06-12.53,26.04-25.24l-.08-44.41c-.02-13.12-13.56-25.21-27.02-25.23l-135.5-.17c-10.23-.01-16.75-7.73-17.38-17.43l-2.8-42.9c-.45-6.94-3.6-13.79-8.28-18.64-9.71-10.05-23.31-7.22-33.07,1.12l-38.88,33.21-93.39,78.35c-10.91,9.15-9.89,26.2.91,34.6l51.16,39.83c10.91,8.5,22.76,14.69,32.86,24.2l17.53,16.53,35.09,28.86c7.25,5.96,16.32,7.93,25.5,3.9,6.42-2.81,13.6-10.23,13.72-19.18l.66-51.83Z"/>
    </g>
  </g>
</svg>
