<?xml version="1.0" encoding="UTF-8"?>
<svg id="Layer_2" data-name="Layer 2" xmlns="http://www.w3.org/2000/svg" viewBox="0 0 802.28 794.72">
  <g id="Layer_1-2" data-name="Layer 1">
    <g>
      <path d="M434.12,650.57l-101.02,76.24-65.29,45.71-30.43,17.51c-16.02,7.67-34.04,5.9-47.98-5.03l-17.94-16.36c-19.03,2.59-35.39-9.57-38.21-28.59-3.35-22.64,5.01-55.69,11.42-79.72,11.43-42.82,24.65-84.28,38.42-126.33l9.51-29.03-71.94-56.09c-17.09-13.32-33.1-26.45-49.04-40.95-9.33-8.49-17.87-17.11-23.6-28.24-8.12-15.78-3.8-33.38,9.1-45.06,6.74-6.1,14.33-10.23,22.65-14.4,59.44-25.11,122.68-41.57,185.91-54.83l55.98-131.76c12.65-29.79,25.47-58.39,39.92-87.11,5.28-9.38,10.13-18.16,16.35-26.71,12.88-17.69,34.35-26.19,52.83-14.32,9.4,6.04,15.42,14.48,20.78,24.28,21.31,32.51,39.74,65.96,56.82,101,18.24,37.43,32.2,76,43.85,116.45,41.47-.38,82.33.87,123.4,5.24l45.35,7.42c22.16,6.02,40.57,16.77,40.92,40.99,10.24,6.75,20.44,12.71,28.99,20.93,13.68,13.16,14.87,32.31,4.44,47.78-7.73,10.64-15.96,19.99-25.57,29.57-38.61,38.51-79.05,74.44-121.42,110.06,26.51,61.27,48.46,127.37,55.87,193.75.7,10.46.93,20.07-1.15,30.09-3.43,16.57-15.89,28.58-32.78,31.29-29.36,4.71-59.61-9.39-86.27-22.4-31.23-16.42-60.72-34.12-90.31-53.45l-59.6-37.96ZM540.31,661.29l52.4,29.04c10.44,5.79,32.86,12.48,40.46,4.27,2.44-2.63,4.28-7.47,4.14-11.58-1.35-40.65-31.56-116.52-46.33-158.78l-16.63-47.57c-2.71-7.75-.87-16.34,5.48-21.97l36.54-32.41,84.91-74.8,22.6-22.53c9.32-9.29,19.41-25.54,10.63-33.58-3.83-3.5-9.15-6.47-14.43-7.43l-36.42-6.65c-30.32-3.51-59.91-5.88-90.59-6.02l-77.97-.35c-5.25-.02-12.95-2.75-14.63-8.18l-21.71-70.33-25.39-87.49c-5.72-19.72-11.85-38.43-19.74-57.2-2.91-6.93-6.54-13.25-11.17-18.88-5.08-6.17-13.87-6.72-19.83-1.23-5.75,5.29-10.34,11.86-13.94,18.94l-17.61,34.6c-29.51,64.4-56.75,129.22-83.87,194.67-3.08,7.44-9.39,10.73-16.97,12.39-46.42,10.15-91.72,21.64-136.87,36.63-19.35,6.42-37.58,13.16-55.29,22.59-4.96,2.64-8.77,7.48-9.8,12.1-1.16,5.17.81,11.15,4.35,15.42,6.83,8.27,14.13,15.58,22.65,22.39l69.88,55.9,43.52,34.4c6.12,4.84,9.79,11.7,7.69,19.34l-4.12,15.02-29.64,92.25c-10.17,31.64-18.28,62.87-24.54,95.43-2.23,11.62-4.16,28.87,2.88,33.57,8.15,5.45,25.26-3.4,34.42-10.34l59.15-44.74,110.19-84.5,27.88-18.2c6.22-4.06,14.25-4.17,20.68-.57l37.27,20.87,89.77,55.51Z"/>
      <path d="M165.7,155.54c3.42,4.94.16,11.5-4.24,13.87-3.94,2.12-10.55,2.01-13.98-2.63l-59.79-80.79c-3.6-4.87-2.7-11.12,1.39-14.89,2.98-2.76,11.06-4.69,14.65-.07,21.48,27.65,41.99,55.64,61.97,84.51Z"/>
      <path d="M106.77,195.97c4.95,3.43,4.75,10.6,2.25,14.14-2.92,4.14-9.56,6.18-14.56,2.76L11.57,156.18c-4.62-3.16-5.17-9.38-3.1-13.88,1.63-3.52,9.24-8.08,13.92-4.83l84.38,58.5Z"/>
      <path d="M94.55,279.94l-82.88,6.88c-6.37.53-11.22-3.71-11.64-9.4-.39-5.24,3.14-11.02,9.34-11.64,28.06-2.82,55.74-4.87,83.99-6.07,5.71-.24,10.11,4.3,10.6,9.05s-2.85,10.64-9.41,11.18Z"/>
      <path d="M676.7,183.01c-3.45,4.84-9.27,5.2-13.36,3.04s-6.86-8.83-3.58-13.52l45.84-65.5c3.38-4.82,11.5-3.29,14.29-.64,4.64,4.42,4.29,10.15.62,15.29l-43.82,61.33Z"/>
      <path d="M718.72,223.74c-4.55,2.79-10.84-.14-12.73-3.24-3.05-4.99-1.13-10.98,3.57-13.87l51.25-31.53c4.55-2.8,10.79-.7,13.27,3.1,2.6,4,1.96,10.35-2.86,13.31l-52.5,32.24Z"/>
    </g>
  </g>
</svg>
