<?xml version="1.0" encoding="UTF-8"?>
<svg id="Layer_2" data-name="Layer 2" xmlns="http://www.w3.org/2000/svg" viewBox="0 0 850.42 738.52">
  <g id="Layer_1-2" data-name="Layer 1">
    <g>
      <path d="M849.45,572.3c-9.2,47.1-70.22,84.2-112.21,103.92-43.74,20.55-89.33,35.22-136.85,44.93-77.51,15.83-164.52,21.91-243.17,13.74-29.59-3.07-57.63-8.98-85.96-18.14-88.65-22.48-166.73-72.88-217.17-149.66-21.06-32.06-36.11-66.7-43.61-104.43C2.89,424.4-1.12,386.28.27,347.25c1.79-50.11,11.68-98.88,33-144.29C69.86,125,133.88,64.94,213.81,32.65,291.3,1.34,376.92-7.89,459.31,6.86c45.32,8.11,87.32,27.37,125.31,52.5,20.33,13.45,37.99,28.96,54.52,46.64,36.61,39.18,64,84.81,81.37,135.52,5.46,15.95,10.66,30.94,13.39,47.6,5.21,31.79,7.33,63.03,8.7,95.32-2.02,39.71-5.78,79.05-19.12,117.38,25.69-.91,50.61,1.73,75.02,8.67,30.29,8.61,57.45,28.55,50.96,61.81ZM691.68,509.43c12.71-29.15,20.46-59.85,22.21-91.68l2.1-38.28-2.74-43.87c-2.65-42.45-18.51-95.5-38.74-133.04-16.14-29.95-35.35-57.46-58.82-82.18-35.49-37.39-79.69-65.02-128.62-81.16-30.86-10.18-62.08-14.37-94.38-16.03-41.36-2.13-78.99,3.03-118.69,13.66-34.14,9.15-65.85,22.83-96.21,40.65-44.04,25.85-79.58,61.56-106.08,105.12-26.98,44.34-42.32,93.83-46.25,145.88-3.45,45.74-1.27,91.02,11,135.34,27.27,98.54,102.24,176.23,197.23,212.65,62.73,24.06,130.48,30,196.81,18.83,46.37-7.81,90.69-22.44,131.53-45.37,56.73-31.86,103.57-80.7,129.66-140.53Z"/>
      <path d="M204.03,462.7c-2.32-.78-8.11,14.32-19.43,7.7-10.01-5.85-2.47-24.88,11.74-36.27,16.29-13.05,37.03-14.23,38.94-1.87.74,4.78-2.53,8.41-6.63,11.33l-2.7,1.92c-.76.54.05,3.05.59,3.89,37.48,58.53,104.58,89.16,173.44,81.5,58.67-6.53,110.64-41.16,136.61-94.69-3.79-4.57-12.19-5.38-10.91-14.19.58-4.01,4.85-8.31,10.37-8.62,30.1-1.66,54.16,30.36,43.76,42.2-4.68,5.33-12.75,4.04-16.84-1.51-1.06-1.44-3.4-2.7-5.34-2.67-33.7,65.84-95.23,102.81-168.94,106.22-61.37,2.85-120-20.65-161.6-65.63-7.95-8.6-14.55-18.26-21.06-27.78-.31-.45-1.5-1.36-1.98-1.53Z"/>
      <path d="M491.95,359.15c-7.96,9.98-21.48,10.79-30.12,2.06-5.71-5.77-9.76-12.7-12.37-20.67-8.24-25.1-9.15-51.84-2.08-77.33,2.36-8.51,6.28-16.52,12.6-22.16,6.54-5.84,15.9-6.84,22.73-1.63,6.42,4.9,11,11.39,13.98,19.16,9.74,25.43,11.81,53.49,5.09,79.9-1.94,7.62-4.96,14.56-9.83,20.67Z"/>
      <path d="M294.91,368.15c-8.38,9.17-20.81,8.6-29.17,0-7.55-7.76-11.6-17.69-14.4-28.55-5.72-22.26-5.7-45.73.45-67.91,2.45-8.82,6.31-17.12,12.83-23.02,9.07-8.2,21.04-5.66,28.47,3.58,8.44,10.51,12.41,23.41,14.75,36.99,3.65,21.16,3.29,42.33-3.74,62.6-2.08,5.99-4.83,11.51-9.2,16.29Z"/>
      <path d="M81.51,248.93c-1.05,2.16-5.58,3.41-7.26,2.58-9.22-4.56,7.98-37.22,15.33-50.14,20.77-36.5,56.15-75.11,93.18-94.78,3.33-1.77,9.4-.4,8.9,4.07-.43,3.84-4.66,7.37-8.18,9.86-38.9,27.46-70.5,63.46-91.31,106.41l-10.66,22.01Z"/>
      <path d="M239.33,82.5c4.11,5.53-8.31,13.26-18.73,16.18-2.09.58-5.93-1.45-6.7-3.1s0-5.86,1.68-6.96c8.11-5.35,19.82-11.41,23.75-6.11Z"/>
    </g>
  </g>
</svg>
