<?xml version="1.0" encoding="UTF-8"?>
<svg id="Layer_2" data-name="Layer 2" xmlns="http://www.w3.org/2000/svg" viewBox="0 0 867.06 801.27">
  <g id="Layer_1-2" data-name="Layer 1">
    <g>
      <path d="M24.93,499.17c-25.51-33.35-36.27-75.73-8.79-109.64,13.22-16.32,30.15-29.05,49.63-37.12,29.58-12.25,61.3-10.29,89.11,5.3,15.46,8.67,28.78,18.98,41.69,31.33,18.73,17.91,35.38,36.85,51.99,56.8l33.16,39.82,9.69,10.97,25.18-31.43,62.88-81.99,107.49-136.24c53.27-64.18,110.38-124.48,172.02-180.48,16.08-14.61,32.05-28.03,49.61-40.43,27.92-19.7,65.76-34.74,98.05-20.33,29.19,13.3,42.1,39.74,37.87,71.45,27.01,22.48,27.24,53.59,13.93,84.6l-21.62,40.55c-19.91,32.29-41.19,63.38-63.49,94.36l-176.4,245.08-119.32,169.25-31.22,42.96c-17.94,21.23-40.88,36.17-68.23,42.62-33.54,7.92-68.82,5.84-100.96-6.64-41.89-16.27-80.65-54.81-110.03-88.93-44.56-51.73-84.99-106.33-121.52-163.91-7.93-12.49-14.51-24.38-20.69-37.94ZM35.84,476.34c10.17,15.4,20.65,29.17,32.23,43.29,39.43,48.09,80.32,94.16,122.72,139.74l43.09,42.89c10.51,10.46,22.78,18.13,36.61,23.34,14.94,5.63,30.45,6.34,46.25,4.72,20.71-2.13,39.54-10.05,55.12-23.93,10.9-9.71,20.31-20.03,29.1-31.9l59.96-80.97,92.98-123.77,197.6-267.8,48.3-70.65c7.69-11.25,13.61-22.7,18.96-35.08,11.57-26.73,10.32-57.01-15.94-70.77-25.59-13.4-57.3-1.75-80.58,14.21-63.27,43.37-177.1,167.48-226.82,230.77l-95.8,121.97-70.44,92.35-23.55,28.55c-7.02,8.51-20.06,9.57-27.62.83l-31.44-36.37c-29.71-34.37-60.02-75.73-99.33-99.4-21.78-13.11-46.56-16-70.47-6.91-17.69,6.72-33.05,18.2-44.56,33.18-16.59,21.59-11.12,49.38,3.63,71.7Z"/>
      <path d="M303.03,385.98c-.4,2.08-2.9,4.4-4.21,4.26s-3.45-2.64-3.65-4.34c-2.98-25.25-4.05-50.15-4.06-75.69,0-6.29,4.98-10.43,10.76-10.36,4.23.05,10.58,4.56,10.36,10.63-.91,25.28-4.29,50.11-9.19,75.51Z"/>
      <path d="M242.99,336.74c5.76,13.16,22.5,53.71,18.48,58.07-.86.93-3.99.19-4.87-1-11.89-16.11-22.66-32.36-31.52-50.16-2.63-5.28.63-11.43,5.17-13.17,5.16-1.98,10.41.9,12.75,6.26Z"/>
      <path d="M364.82,357.8c-6.12,10.5-25.07,39.69-29.72,38.02-1-.36-1.94-3.21-1.52-4.24l17.69-43.3c1.53-3.74,5.87-5.26,9.43-3.63,4.97,2.27,6.98,8.25,4.11,13.17Z"/>
    </g>
  </g>
</svg>
