<?xml version="1.0" encoding="UTF-8"?>
<svg id="Layer_2" data-name="Layer 2" xmlns="http://www.w3.org/2000/svg" viewBox="0 0 915.86 785.78">
  <g id="Layer_1-2" data-name="Layer 1">
    <path d="M250.99,620.8l-97.23-95.45-27.16-26.1c-23.44-22.53-45.51-45.72-64.63-72.18C23.54,373.89,1.59,310.88.07,245.1c-.74-32,4.29-62.28,15.02-92.19,11.84-33.01,31.19-62.12,57.04-85.78C119.14,24.1,178.57,4.89,242.01,5.14c19.85.08,38.23,2.82,56.94,9.26,53.47,18.4,92.98,54.24,122.06,103.2,27.12-41.68,66.61-73.86,111.18-95.01C563.4,8.25,596.25.64,630.74,0c31.24-.16,61.65,3.56,90.5,15.87,45.09,19.23,81.09,55.3,102.13,99.61,12.38,5.67,23,12.51,33.29,21.58,29.4,25.89,47.89,60.19,55.08,98.97,5.33,35.02,5.88,70.4-.71,105.46-12.02,63.91-50.29,117.21-92.56,165.32-34.26,39-71.43,74.94-111.08,108.66-53.93,45.85-110.3,88.25-169.27,127.25-20.92,13.84-41.82,26.3-64.2,36.66-24.05,11.12-49.48,7.6-69.7-9.25l-50.08-46.77-103.14-102.55ZM234.51,553.81l78.7,72.62,48.01,46.92,21.78,21.33c5.19,5.08,12.76,7,19.26,2.02l112.44-86.1,103.27-79.56c55.16-45.43,106.14-94.5,144.96-154.78,37.87-58.81,60.56-129.96,48.14-199.72-4.87-27.35-14.42-52.78-30.64-75.3-24.1-33.47-59.24-56.32-99.07-66.65-72.95-18.91-145.88,5.83-200.74,55.28-20.94,18.87-37.53,40.53-50.43,65.53-2.13,4.13-7.51,6.12-11.72,5.85-3.88-.25-8.72-2.83-10.68-7.01-22.25-47.4-49.33-80.81-97.77-103.06-43.41-19.94-91.08-23.37-137.09-10.05-56.39,16.33-101.49,52.28-125.23,106.51-11.4,26.04-17.66,52.73-18.51,81.49-2.14,72.79,23.81,143.39,71.51,198.14,14.92,17.13,30.34,32.58,47.18,47.88l86.62,78.66Z"/>
  </g>
</svg>
